<svg width="102" height="40" viewBox="0 0 100 40" fill="#FF6633"
     xmlns="http://www.w3.org/2000/svg">
    <g>
        <path d="M61.5211 21.7038V21.8046L61.488 22.04C61.4929 22.0875 61.4811 22.1352 61.4548 22.1747L60.4674 28.0544C60.3774 28.6854 60.069 29.2627 59.5981 29.6817C59.1272 30.1007 58.5249 30.3338 57.9002 30.3387H56.1885C55.4993 30.337 54.8389 30.0568 54.3516 29.5594C53.8643 29.0619 53.5898 28.3878 53.5881 27.6843V27.6174H53.5549L54.5755 21.4353C54.8385 19.8565 55.7935 18.9494 57.2082 18.9494H59.2486L59.2817 18.9832C59.8965 19.0766 60.4577 19.3929 60.8627 19.8741C61.2677 20.3553 61.4894 20.9694 61.4872 21.6038C61.4997 21.617 61.5092 21.6329 61.5149 21.6504C61.5207 21.6678 61.5225 21.6863 61.5203 21.7046L61.5211 21.7038ZM64.947 29.23L65.9675 22.6117C66.0276 22.312 66.0716 22.0092 66.0995 21.7046V21.6377C66.0995 21.4699 66.1326 21.3014 66.1326 21.1337C66.1326 19.4229 65.4668 17.7822 64.2818 16.5724C63.0967 15.3627 61.4893 14.6831 59.8134 14.6831H56.5882C53.4285 14.6831 50.697 17.1021 50.2689 20.2935V20.3604L50.2033 20.4274L49.0801 27.5166L49.1132 27.5504V27.6512C49.0867 27.8516 49.0756 28.0538 49.0801 28.256C49.0801 31.7836 51.9103 34.6396 55.3338 34.6396H58.7565C60.2214 34.6408 61.6403 34.1167 62.7653 33.1587C63.8902 32.2008 64.6498 30.8699 64.9114 29.3985L64.9446 29.2308"></path>
        <path d="M33.4462 20.7636C33.3806 21.3684 33.3806 21.503 33.2487 21.503C33.15 21.7046 32.9193 21.9062 32.5575 22.007C31.9288 22.1408 26.3038 23.6866 26.2414 23.6866C25.4847 23.922 25.2209 24.2913 25.2209 24.2913L25.8465 20.8975C25.8465 20.8975 26.0771 18.9486 28.6111 18.9486H31.8695C32.3632 18.9486 32.7582 19.1163 33.0212 19.4187C33.413 19.8227 33.4794 20.3935 33.4462 20.7636ZM37.7575 19.6211C37.7583 18.959 37.6312 18.3033 37.3834 17.6915C37.1356 17.0797 36.772 16.5238 36.3134 16.0557C35.8548 15.5876 35.3102 15.2164 34.7108 14.9634C34.1115 14.7105 33.4691 14.5807 32.8206 14.5815H27.9792L27.683 14.6154C24.8851 14.817 22.483 16.8997 21.8906 19.6888V19.7557C21.4625 22.6787 20.6402 28.0544 20.607 28.2221C20.4751 29.734 20.9719 31.2459 22.0549 32.4553C22.6791 33.1491 23.4367 33.704 24.2805 34.0856C25.1242 34.4671 26.0359 34.667 26.9587 34.6727H32.0275C33.9035 34.6727 35.4833 33.2617 35.8127 31.3466L36.2733 28.3229H33.4462C32.6563 28.3229 31.9651 28.76 31.7021 29.5324C31.6386 29.7512 31.5089 29.9438 31.3315 30.0826C31.1541 30.2214 30.9381 30.2992 30.7147 30.3049H26.7943C25.675 30.238 24.754 29.4647 24.8528 28.5914C24.9183 27.9867 25.3133 27.7512 26.3994 27.4158L34.2029 25.2992C34.2361 25.2992 37.0663 24.426 37.3625 22.2086C37.3957 21.9062 37.4281 21.8054 37.4613 21.57C37.4945 21.4022 37.5268 21.1668 37.5932 20.7636C37.712 20.3953 37.7676 20.0087 37.7575 19.6211Z"></path>
        <path d="M95.6848 20.7636C95.6193 21.3684 95.6193 21.503 95.4874 21.503C95.3886 21.7046 95.158 21.9062 94.7962 22.007C94.1706 22.1416 88.5425 23.6866 88.4769 23.6866C87.7202 23.922 87.4564 24.2913 87.4564 24.2913L88.082 20.8983C88.082 20.8983 88.3126 18.9494 90.8467 18.9494H94.105C94.5987 18.9494 94.9937 19.1171 95.2567 19.4195C95.6185 19.8227 95.7172 20.3935 95.6848 20.7636ZM99.9962 19.6211C99.997 18.959 99.8699 18.3033 99.6221 17.6915C99.3743 17.0797 99.0106 16.5238 98.552 16.0557C98.0934 15.5876 97.5489 15.2164 96.9495 14.9634C96.3502 14.7105 95.7078 14.5807 95.0592 14.5815H90.2242L89.9612 14.6154C87.1633 14.817 84.7612 16.8997 84.1688 19.6888V19.7557C83.7406 22.6787 82.9183 28.0544 82.8852 28.2221C82.7532 29.734 83.2469 31.2459 84.3331 32.4553C84.9573 33.1491 85.7149 33.704 86.5586 34.0856C87.4023 34.4671 88.314 34.667 89.2368 34.6727H93.812V34.6389H94.3057C95.2136 34.6396 96.0917 34.3077 96.7803 33.7036C97.4688 33.0994 97.9221 32.2631 98.0577 31.3466L98.5183 28.3229H95.688C95.3059 28.3182 94.9325 28.4401 94.6239 28.6702C94.3153 28.9003 94.0881 29.2263 93.9763 29.5993C93.9113 29.8145 93.7802 30.0026 93.6024 30.1357C93.4245 30.2689 93.2094 30.3401 92.9889 30.3387H89.0725C87.9532 30.2718 87.0322 29.4655 87.1309 28.5584C87.1965 27.9536 87.5914 27.7182 88.6776 27.3828L96.4779 25.2662C96.5111 25.2662 99.3413 24.3929 99.6376 22.1755C99.6707 21.8731 99.7031 21.7723 99.7363 21.5369C99.7695 21.3692 99.8019 21.1337 99.8682 20.7306C99.9465 20.3661 99.9907 19.9949 100 19.6219"></path>
        <path d="M82.2231 17.1013L82.6181 14.5815H79.3233C76.6906 14.6823 74.6495 18.7478 74.6495 18.7478L75.2087 15.5225H70.4037L67.376 34.6727H72.1486L73.9591 23.5519C74.5515 21.0991 76.6582 19.3856 79.1267 19.3856C79.2919 19.3802 79.4573 19.3915 79.6204 19.4195C80.2405 19.4166 80.8394 19.1885 81.3097 18.776C81.7801 18.3635 82.0913 17.7936 82.1876 17.1682L82.2207 17.1013"></path>
        <path d="M12.7111 28.4907V28.5246C12.6025 29.0299 12.3278 29.4821 11.9326 29.8059C11.5375 30.1298 11.0456 30.3059 10.5388 30.3049H7.34602C6.76111 30.3049 6.20015 30.0678 5.78655 29.6456C5.37295 29.2234 5.14059 28.6508 5.14059 28.0537C5.14059 27.9868 6.62167 16.9667 6.62167 16.9667C7.00526 17.4408 7.48926 17.8199 8.03719 18.0754L12.5136 20.192C12.844 20.3938 13.1179 20.6792 13.3087 21.0206C13.4995 21.362 13.6009 21.7479 13.6029 22.1409C13.5666 22.1748 13.6029 22.6449 12.7111 28.4907ZM18.6022 22.3425C19.2278 18.5124 15.9695 16.9337 15.8375 16.8659C15.6401 16.7651 10.3737 14.6485 8.8271 13.7753C7.24728 12.8682 7.64224 10.8524 7.67541 10.6508L8.26784 6.24986C8.4985 4.53642 8.26784 3.26001 7.60985 2.48674C7.01742 1.78121 6.19433 1.68042 5.79938 1.68042H4.154L0.105714 26.945C-0.322417 29.5994 0.632583 31.3798 1.48805 32.4216C2.63974 33.7988 4.38465 34.6728 6.06321 34.6728H11.4283C14.6211 34.6728 17.3194 32.0861 17.5501 28.7931C17.682 27.8521 18.0769 25.467 18.603 22.3425"></path>
        <path d="M50.3338 3.35995L51.0249 0H47.6315C46.4737 0.0508873 45.3704 0.516655 44.5156 1.31547C43.6609 2.11429 43.1092 3.19505 42.9576 4.36786L42.9244 4.43478L37.2639 39.7453H37.8895C40.3248 39.7453 42.3659 37.965 42.7609 35.4783L43.3202 32.4884L44.9987 21.4353C45.0303 20.9682 45.2351 20.5309 45.5715 20.2125C45.9079 19.8942 46.3505 19.7187 46.8092 19.7219H47.4348L48.1915 14.5816H46.0517L47.3684 6.48446C47.434 5.77893 47.5991 4.9726 48.4877 4.83794L48.5209 4.80408H48.5865C49.607 4.66943 50.1995 4.6025 50.3306 3.35915"></path>
    </g>
</svg>