<svg width="24" height="24" viewBox="0 0 24 24" fill="none" xmlns="http://www.w3.org/2000/svg">
<path d="M12.9544 0.795001C12.7519 0.975001 11.1769 4.10063 11.1769 4.10063L10.005 8.8275L14.565 8.40938C14.565 8.40938 18.3581 1.35563 18.435 1.1925C18.5719 0.896251 18.645 0.774376 18.1219 0.774376C17.5988 0.772501 13.1438 0.626251 12.9544 0.795001Z" fill="#176CC7"/>
<path d="M15.315 8.11688C15.0882 7.995 8.40567 7.89 8.24817 8.11688C8.10567 8.32313 8.18629 9.405 8.24067 9.53438C8.33817 9.75938 10.4963 10.74 10.4963 10.74L10.455 11.1863C10.455 11.1863 10.6313 11.2313 11.8857 11.2313C13.14 11.2313 13.3875 11.1675 13.3875 11.1675L13.3913 10.7644C13.3913 10.7644 15.3338 9.81938 15.4313 9.68813C15.5138 9.57938 15.5419 8.23875 15.315 8.11688ZM13.3257 9.82688C13.3257 9.82688 13.3875 9.55125 13.2582 9.4875C13.1288 9.42188 10.9088 9.45188 10.7325 9.46125C10.5563 9.47063 10.5563 9.78563 10.5563 9.78563L9.13129 8.93625V8.7975L14.4375 8.835L14.4469 8.9925L13.3257 9.82688Z" fill="#CECDD2"/>
<path d="M11.1112 9.59438C10.935 9.59438 10.8337 9.77813 10.8337 10.095C10.8337 10.3913 10.935 10.6406 11.1581 10.6219C11.3419 10.6069 11.4056 10.3256 11.3887 10.0763C11.3719 9.78 11.3344 9.59438 11.1112 9.59438Z" fill="#FDFFFF"/>
<path d="M5.43188 17.2294C5.43188 21.7219 9.56626 23.6287 12.2681 23.5481C15.4163 23.4544 18.7388 21.0656 18.5231 16.7794C18.3188 12.7181 14.8744 10.9125 11.9156 10.9331C8.47688 10.9594 5.43188 13.305 5.43188 17.2294Z" fill="#CECDD2"/>
<path d="M12.0993 22.7119C12.0524 22.7119 12.0037 22.7119 11.9568 22.71C10.5506 22.6631 9.1612 22.0706 8.14495 21.0862C7.05745 20.0325 6.4612 18.6075 6.4687 17.0756C6.48557 13.335 9.75557 11.6006 11.9737 11.6006H11.9924C14.9981 11.6137 17.4656 13.95 17.5349 17.1169C17.5649 18.5269 16.9874 20.0062 15.8549 21.12C14.7974 22.1569 13.3949 22.7119 12.0993 22.7119ZM11.9699 12.2231C9.98057 12.2231 7.0387 13.8506 7.0312 17.0756C7.02557 19.4869 8.89307 21.9656 12.0037 22.0706C13.1887 22.1081 14.4093 21.6544 15.3956 20.685C16.4193 19.6781 16.9949 18.3806 16.9743 17.1244C16.9256 14.4 14.6981 12.2325 11.9943 12.2194C11.9906 12.2194 11.9756 12.2231 11.9699 12.2231Z" fill="#9B9B9D"/>
<path d="M10.8918 11.5256C10.7625 11.3475 9.43685 11.3981 8.00997 12.6262C6.59247 13.8469 6.38059 15.1969 6.63559 15.2681C6.92622 15.3488 7.2806 14.0438 8.50497 12.9469C9.62997 11.9438 11.1487 11.88 10.8918 11.5256ZM16.4775 16.4475C16.0256 16.5113 16.4943 17.865 15.4462 19.38C14.5368 20.6944 13.5056 21.1706 13.6256 21.4594C13.7868 21.8456 15.4387 20.8837 16.2037 19.3163C16.8956 17.8988 16.8131 16.4006 16.4775 16.4475Z" fill="#FEFFFA"/>
<path d="M4.78316 0.697502C4.66504 0.806252 9.18191 8.85 9.18191 8.85C9.18191 8.85 9.93941 8.9475 11.6307 8.9625C13.3219 8.9775 14.16 8.865 14.16 8.865C14.16 8.865 10.6482 0.778127 10.4382 0.697502C10.335 0.656252 8.94379 0.641252 7.58441 0.626252C6.22316 0.609377 4.89566 0.592502 4.78316 0.697502Z" fill="#2E9DF4"/>
<path d="M10.6594 16.1906C10.8544 16.1925 11.0287 15.9281 11.19 15.7669C11.5331 15.4219 11.8931 15.1481 12.3037 15.5194C13.3125 16.4363 11.2875 17.3663 10.5187 18.6375C9.94498 19.5863 9.82873 20.3156 9.9881 20.5106C10.1475 20.7056 14.0269 20.6963 14.0794 20.5988C14.1319 20.5013 14.1862 19.2019 14.0962 19.14C14.0062 19.0781 12.0994 19.1138 12.0994 19.1138C12.0994 19.1138 12.2587 18.7425 12.9131 18.1763C13.6312 17.5556 14.2069 16.7025 14.0531 15.6938C13.7344 13.6088 11.6344 13.5319 10.725 14.2575C9.8381 14.9644 10.0294 16.1831 10.6594 16.1906Z" fill="#9B9B9D"/>
</svg>
