<svg width="24" height="24" viewBox="0 0 24 24" fill="none" xmlns="http://www.w3.org/2000/svg">
<path d="M12.9544 0.795C12.7519 0.975 11.1769 4.10063 11.1769 4.10063L10.005 8.8275L14.565 8.40938C14.565 8.40938 18.3581 1.35563 18.435 1.1925C18.5719 0.89625 18.645 0.774375 18.1219 0.774375C17.5988 0.7725 13.1438 0.62625 12.9544 0.795Z" fill="#176CC7"/>
<path d="M15.315 8.11688C15.0882 7.995 8.40567 7.89 8.24817 8.11688C8.10567 8.32313 8.18629 9.405 8.24067 9.53438C8.33817 9.75938 10.4963 10.74 10.4963 10.74L10.455 11.1863C10.455 11.1863 10.6313 11.2313 11.8857 11.2313C13.14 11.2313 13.3875 11.1675 13.3875 11.1675L13.3913 10.7644C13.3913 10.7644 15.3338 9.81938 15.4313 9.68813C15.5138 9.57938 15.5419 8.23875 15.315 8.11688ZM13.3257 9.82688C13.3257 9.82688 13.3875 9.55125 13.2582 9.4875C13.1288 9.42188 10.9088 9.45188 10.7325 9.46125C10.5563 9.47063 10.5563 9.78563 10.5563 9.78563L9.15754 9.06563L9.13129 8.7975L14.4375 8.835L14.4188 9.08813L13.3257 9.82688Z" fill="#F79429"/>
<path d="M11.1112 9.72937C10.935 9.72937 10.8337 9.91312 10.8337 10.23C10.8337 10.5263 10.935 10.7756 11.1581 10.7569C11.3419 10.7419 11.4056 10.4606 11.3887 10.2112C11.3719 9.91312 11.3344 9.72937 11.1112 9.72937Z" fill="#FDFFFF"/>
<path d="M5.49561 17.2669C5.49561 21.7594 9.56623 23.6287 12.2681 23.5481C15.4162 23.4544 18.8025 21.0656 18.5231 16.7794C18.2606 12.7575 14.8744 10.9125 11.9156 10.9331C8.47686 10.9594 5.49561 13.3425 5.49561 17.2669Z" fill="#F79429"/>
<path d="M12.1256 22.8694C12.0787 22.8694 12.0299 22.8694 11.9831 22.8675C10.5768 22.8206 9.18744 22.2281 8.17119 21.2438C7.08369 20.19 6.48744 18.765 6.49494 17.2331C6.51182 13.4925 9.78182 11.7581 11.9999 11.7581H12.0187C15.0243 11.7713 17.4918 14.1075 17.5612 17.2744C17.5912 18.6844 17.1412 20.0869 16.0087 21.2006C14.9512 22.2356 13.4212 22.8694 12.1256 22.8694ZM11.9962 12.3806C10.0068 12.3806 7.06494 14.0081 7.05744 17.2331C7.05182 19.6444 8.91932 22.1231 12.0299 22.2281C13.2149 22.2656 14.5518 21.8269 15.5362 20.8594C16.5599 19.8525 17.0193 18.54 16.9987 17.2838C16.9537 14.5594 14.7262 12.3919 12.0224 12.3806C12.0168 12.3769 12.0018 12.3806 11.9962 12.3806Z" fill="#D25116"/>
<path d="M10.8918 11.5256C10.7625 11.3475 9.43684 11.3981 8.00997 12.6262C6.59247 13.8469 6.38059 15.1969 6.63559 15.2681C6.92622 15.3488 7.28059 14.0438 8.50497 12.9469C9.62997 11.9438 11.1487 11.88 10.8918 11.5256ZM16.59 16.4325C16.1381 16.4963 16.6068 17.85 15.5587 19.365C14.6493 20.6794 13.6181 21.1556 13.7381 21.4444C13.8993 21.8306 15.5512 20.8688 16.3162 19.3013C17.0081 17.8819 16.9256 16.3837 16.59 16.4325Z" fill="#FEFFFA"/>
<path d="M4.78316 0.6975C4.66504 0.80625 9.18191 8.85 9.18191 8.85C9.18191 8.85 9.93941 8.9475 11.6307 8.9625C13.3219 8.9775 14.16 8.865 14.16 8.865C14.16 8.865 10.6482 0.778125 10.4382 0.6975C10.335 0.65625 8.94379 0.64125 7.58441 0.62625C6.22316 0.609375 4.89566 0.5925 4.78316 0.6975Z" fill="#2E9DF4"/>
<path d="M14.0531 15.6956C13.8356 13.8112 11.6418 13.6537 10.7325 14.3775C9.84745 15.0825 9.93183 16.065 10.5525 16.1794C11.0418 16.2694 11.1693 15.8812 11.3118 15.7031C11.6343 15.3037 12.1481 15.2662 12.4837 15.5869C12.8643 15.9525 12.63 16.8262 12.0581 16.8619C11.6325 16.8881 11.4168 16.8656 11.3625 16.9387C11.2856 17.0419 11.2968 17.8537 11.3756 17.9437C11.4656 18.0469 11.8256 17.9831 12.135 17.9944C12.5606 18.0113 13.0125 18.6413 12.7143 19.1137C12.405 19.6031 11.5818 19.3838 11.2856 19.0875C10.8937 18.6956 10.5018 18.9206 10.3706 19.0744C10.1643 19.3181 9.94495 19.8731 10.7062 20.4131C11.4656 20.9531 13.77 21.0562 14.235 19.3837C14.64 17.9231 13.695 17.3231 13.695 17.3231C13.695 17.3231 14.1768 16.77 14.0531 15.6956Z" fill="#D25116"/>
</svg>
