<svg width="25" height="24" viewBox="0 0 25 24" fill="none" xmlns="http://www.w3.org/2000/svg">
<path d="M13.4544 0.794997C13.2519 0.974997 11.6769 4.10062 11.6769 4.10062L10.505 8.8275L15.065 8.40937C15.065 8.40937 18.8581 1.35562 18.935 1.1925C19.0719 0.896247 19.145 0.774372 18.6219 0.774372C18.0988 0.772497 13.6438 0.626247 13.4544 0.794997Z" fill="#176CC7"/>
<path d="M15.815 8.11688C15.5881 7.995 8.90563 7.89 8.74813 8.11688C8.60563 8.32313 8.62625 9.26625 8.69563 9.38813C8.765 9.51 11.0113 10.5544 11.0113 10.5544L11.0094 10.935C11.0094 10.935 11.1331 11.2331 12.3856 11.2331C13.6381 11.2331 13.7675 10.98 13.7675 10.98L13.7788 10.5956C13.7788 10.5956 15.7456 9.61313 15.8488 9.52688C15.9538 9.43875 16.0419 8.23875 15.815 8.11688ZM13.7563 9.67875C13.7563 9.67875 13.7506 9.41625 13.6213 9.35063C13.4919 9.285 11.4088 9.29625 11.2325 9.30563C11.0563 9.315 11.0563 9.63 11.0563 9.63L9.63125 8.93625V8.7975L14.9375 8.835L14.9469 8.9925L13.7563 9.67875Z" fill="#FCC417"/>
<path d="M11.6112 9.59438C11.435 9.59438 11.3337 9.77813 11.3337 10.095C11.3337 10.3913 11.435 10.6406 11.6581 10.6219C11.8419 10.6069 11.9056 10.3256 11.8887 10.0763C11.8719 9.78 11.8344 9.59438 11.6112 9.59438Z" fill="#FDFFFF"/>
<path d="M5.93372 17.01C5.93372 21.5025 9.99497 23.5031 12.695 23.4075C15.6725 23.3006 19.2387 20.9794 19.0231 16.6931C18.8187 12.6319 15.4025 10.7062 12.4437 10.7269C9.00497 10.7512 5.93372 13.0856 5.93372 17.01Z" fill="#FCC417"/>
<path d="M12.5993 22.6256C12.5524 22.6256 12.5037 22.6256 12.4568 22.6237C11.0506 22.5769 9.6612 21.9844 8.64495 21C7.55745 19.9462 6.9612 18.5213 6.9687 16.9894C6.98557 13.2488 10.2556 11.5144 12.4737 11.5144H12.4924C15.4981 11.5275 17.9656 13.8638 18.0349 17.0306C18.0649 18.4406 17.4874 19.92 16.3549 21.0337C15.2974 22.0706 13.8949 22.6256 12.5993 22.6256ZM12.4699 12.1369C10.4806 12.1369 7.5387 13.7644 7.5312 16.9894C7.52557 19.4006 9.39307 21.8794 12.5037 21.9844C13.6887 22.0219 14.9093 21.5681 15.8956 20.5987C16.9193 19.5919 17.4949 18.2944 17.4743 17.0381C17.4293 14.3138 15.2018 12.1463 12.4981 12.135C12.4906 12.135 12.4756 12.1369 12.4699 12.1369Z" fill="#FA912C"/>
<path d="M11.3413 11.3644C11.2119 11.1863 9.74563 11.22 8.36001 12.5738C7.02313 13.8806 6.87876 15.1125 7.13563 15.1838C7.42626 15.2644 7.78063 13.9594 9.00501 12.8625C10.13 11.8575 11.6 11.7188 11.3413 11.3644ZM17.0131 16.215C16.5613 16.2788 17.03 17.6325 15.9819 19.1475C15.0725 20.4619 14.0413 20.9381 14.1613 21.2269C14.3225 21.6131 15.9744 20.6513 16.7394 19.0838C17.4331 17.6644 17.3506 16.1663 17.0131 16.215Z" fill="#FEFFFA"/>
<path d="M10.9719 14.4413C10.8744 14.5856 10.9625 15.8513 11.0206 15.9075C11.1331 16.02 11.9881 15.6169 11.9881 15.6169L11.9562 19.0013C11.9562 19.0013 11.3281 18.9938 11.2625 19.0181C11.1331 19.0669 11.15 20.3719 11.2456 20.4356C11.3412 20.4994 13.9044 20.5331 14.0019 20.4038C14.0994 20.2744 14.075 19.1325 14.03 19.08C13.9494 18.9825 13.3362 19.0219 13.3362 19.0219C13.3362 19.0219 13.3887 14.0381 13.3719 13.8788C13.355 13.7194 13.1787 13.62 12.9687 13.6688C12.7587 13.7175 11.0337 14.3475 10.9719 14.4413Z" fill="#FA912C"/>
<path d="M5.28316 0.697502C5.16504 0.806252 9.68191 8.85 9.68191 8.85C9.68191 8.85 10.4394 8.9475 12.1307 8.9625C13.8219 8.9775 14.66 8.865 14.66 8.865C14.66 8.865 11.1482 0.778127 10.9382 0.697502C10.835 0.656252 9.44379 0.641252 8.08441 0.626252C6.72316 0.609377 5.39566 0.592502 5.28316 0.697502Z" fill="#2E9DF4"/>
</svg>
